<svg width="18" height="17" viewBox="0 0 18 17" fill="none" xmlns="http://www.w3.org/2000/svg">
<path d="M4.83165 0.893799C2.51217 0.893799 0.253906 2.44904 0.253906 5.29592C0.253906 8.46337 4.05412 11.8664 8.39047 15.959C8.56015 16.1197 8.78055 16.1996 9.00008 16.1996C9.21961 16.1996 9.44001 16.1197 9.60969 15.959C13.9627 11.8511 17.7463 8.46422 17.7463 5.29592C17.7463 2.44479 15.4897 0.901452 13.1729 0.901452C11.5671 0.901452 9.98403 1.63783 9.00008 3.07318C8.01176 1.63103 6.43308 0.893799 4.83165 0.893799ZM4.83165 2.16928C6.57214 2.17013 7.63218 3.31977 8.46569 4.46515C8.58814 4.63352 8.78755 4.73386 9.00008 4.73471C9.21261 4.73471 9.41203 4.63522 9.53535 4.4677C10.3706 3.32912 11.4508 2.17694 13.1729 2.17694C14.7437 2.17694 16.4343 3.15311 16.4343 5.29592C16.4343 7.56713 13.9146 10.1198 9.00008 14.7575C4.22992 10.2635 1.56583 7.6241 1.56583 5.29592C1.56583 4.33931 1.90606 3.5366 2.5489 2.97709C3.13752 2.46349 3.97016 2.16928 4.83165 2.16928Z" fill="#0C331F"/>
</svg>
